<?xml version="1.0" encoding="UTF-8"?><svg id="Layer_1" xmlns="http://www.w3.org/2000/svg" viewBox="0 0 685.15 490.6"><defs><style>.cls-1{fill:none;stroke:#1d1d1b;stroke-miterlimit:10;stroke-width:5px;}</style></defs><path class="cls-1" d="M680.35,23.4c-130.08,75.57-260.16,151.13-390.23,226.7h257.15c45.11,77.07,90.23,154.14,135.34,231.21-.75-152.64-1.5-305.27-2.26-457.91Z"/><path class="cls-1" d="M638.62,4.22c-116.54.75-233.09,1.5-349.63,2.26.75,65.04,1.5,130.08,2.26,195.12,115.79-65.79,231.58-131.58,347.38-197.37Z"/><circle class="cls-1" cx="126.58" cy="212.63" r="34.35"/><path class="cls-1" d="M73.57,58.36C-7.39,131.76,2.47,235.23,3.64,245.58c-.38,78.2-.75,156.39-1.13,234.59h248.13V4.22c-12.7-1.75-103.38-12.68-177.07,54.14ZM126.58,286.94c-40.15,0-72.7-32.55-72.7-72.7s32.55-72.7,72.7-72.7,72.7,32.55,72.7,72.7-32.55,72.7-72.7,72.7Z"/></svg>