<?xml version="1.0" encoding="utf-8"?>
<!-- Generator: Adobe Illustrator 28.3.0, SVG Export Plug-In . SVG Version: 6.00 Build 0)  -->
<svg version="1.1" id="Layer_1" xmlns="http://www.w3.org/2000/svg" xmlns:xlink="http://www.w3.org/1999/xlink" x="0px" y="0px"
	 viewBox="0 0 1733.5 516.6" style="enable-background:new 0 0 1733.5 516.6;" xml:space="preserve">
<style type="text/css">
	.st0{fill:#D4145A;}
	.st1{font-family:'RubikBubbles-Regular';}
	.st2{font-size:260.5204px;}
	.st3{fill:#FF7BAC;}
	.st4{fill:#FBB03B;}
	.st5{fill:url(#SVGID_1_);}
	.st6{fill:#FFFFFF;}
	.st7{fill:#333333;}
</style>
<g>
	<g>
		<text transform="matrix(1 0 0 1 355.3098 371.5963)" class="st0 st1 st2">L</text>
		<text transform="matrix(1 0 0 1 507.1999 351.3824)" class="st0 st1 st2">U</text>
		<text transform="matrix(1 0 0 1 700.0081 382.1852)" class="st0 st1 st2">O</text>
		<text transform="matrix(1 0 0 1 893.3831 329.0475)" class="st0 st1 st2">L</text>
		<text transform="matrix(1 0 0 1 1058.2712 374.8561)" class="st0 st1 st2">I</text>
		<text transform="matrix(1 0 0 1 1155.6511 414.9)" class="st0 st1 st2">N</text>
		<text transform="matrix(1 0 0 1 1351.5334 414.6881)" class="st0 st1 st2">G</text>
		<text transform="matrix(1 0 0 1 1540.1633 328.9357)" class="st0 st1 st2">O</text>
	</g>
	<g>
		<text transform="matrix(1 0 0 1 340.3098 353.5963)" class="st3 st1 st2">L</text>
		<text transform="matrix(1 0 0 1 492.1999 333.3824)" class="st4 st1 st2">U</text>
		<text transform="matrix(1 0 0 1 685.0081 364.1852)" class="st3 st1 st2">O</text>
		<text transform="matrix(1 0 0 1 878.3831 311.0475)" class="st4 st1 st2">L</text>
		<text transform="matrix(1 0 0 1 1043.2712 356.8561)" class="st3 st1 st2">I</text>
		<text transform="matrix(1 0 0 1 1140.6511 396.9)" class="st4 st1 st2">N</text>
		<text transform="matrix(1 0 0 1 1336.5334 396.6881)" class="st3 st1 st2">G</text>
		<text transform="matrix(1 0 0 1 1525.1633 310.9357)" class="st4 st1 st2">O</text>
	</g>
	<g>
		<path class="st0" d="M22.1,175.2c-2.1,1.1-4.4,0.6-6.8-1.7c-2.4-2.2-4.6-5.2-6.5-8.8c-1.9-3.6-3-7.1-3.2-10.4
			c-0.3-3.3,0.7-5.5,2.8-6.6c-3.4,0.5-5.8-0.2-7.2-2.1c-1.4-1.9-1.6-4-0.8-6.2c0.9-2.2,3-3.4,6.4-3.7c-3.1-0.7-5.1-2.7-5.9-6.1
			c-0.9-3.4-1-7.2-0.3-11.3c0.7-4.1,2.1-7.7,4.2-10.6c2.1-2.9,4.7-4,7.8-3.4c-2.1-1.1-3.1-3.2-3-6.2c0.1-3,1-6.1,2.5-9.4
			c1.6-3.2,3.5-5.8,5.8-7.7c2.3-1.9,4.6-2.3,6.8-1.3c-1.8-1.2-2.6-3.2-2.2-6c0.3-2.8,1.3-5.7,3-8.8c1.7-3.1,3.8-6,6.3-8.5
			c2.5-2.5,5-4.3,7.5-5.4c2.5-1.1,4.7-1,6.6,0.3c-2.2-2.2-3.1-4.7-2.6-7.5c0.5-2.8,1.9-5.3,4-7.4c2.1-2.2,4.6-3.6,7.5-4.2
			c2.8-0.6,5.3,0.1,7.4,2.2c-2.7-3.4-3.7-6.3-2.9-8.8c0.8-2.5,2.5-3.9,5.1-4.2c2.6-0.3,5.3,1.2,8,4.6c-1.2-2.5-1-5.1,0.4-7.6
			c1.4-2.5,3.7-4.9,6.6-7c3-2.1,6.2-3.7,9.7-4.8c3.5-1.1,6.7-1.5,9.6-1.2c2.9,0.3,5,1.7,6.3,4.1c-0.3-2.9,0.3-5.1,1.8-6.8
			c1.5-1.7,3.4-2.6,5.6-2.9c2.2-0.2,4.2,0.3,6.1,1.6c1.9,1.3,3,3.4,3.3,6.2c0.3-3.1,1.3-5.2,3.1-6.1c1.7-0.9,3.3-0.8,4.7,0.5
			c1.4,1.2,1.9,3.5,1.5,6.8c1.1-2.9,2.9-4.7,5.4-5.4c2.5-0.7,5-0.6,7.6,0.2c2.6,0.9,4.6,2.4,6,4.7c1.4,2.2,1.6,4.7,0.6,7.5
			c2-0.8,3.9-0.6,5.5,0.6c1.6,1.2,2.9,2.9,3.9,5.1c1,2.2,1.3,4.3,1,6.3c-0.3,2-1.6,3.5-3.7,4.4c1.2,2.2,1,4.4-0.6,6.7
			c-1.6,2.3-3.9,4.2-6.7,5.7c-2.8,1.5-5.7,2.4-8.6,2.5c-2.9,0.1-4.9-1-6-3.3c-0.1,3.1-1.3,5.3-3.7,6.5c-2.4,1.2-5,1.6-7.9,1
			c-2.9-0.5-4.9-1.9-6.1-4.2c-0.1,2.3-1.1,4.6-3.1,6.7c-2,2.1-4.4,3.9-7.1,5.3c-2.7,1.4-5.4,2.2-8.1,2.4c-2.7,0.2-4.8-0.5-6.6-2.1
			c1.3,2.1,1.7,4.2,1.1,6.3c-0.6,2.1-1.8,3.9-3.5,5.5c-1.7,1.5-3.7,2.4-6,2.6c-2.3,0.2-4.3-0.7-6.2-2.6c3.3,2.9,4.9,5.5,4.8,7.9
			c-0.1,2.4-1.3,3.8-3.6,4.3c-2.3,0.5-5.1-0.7-8.4-3.6c2.2,1.8,3.2,3.9,3.1,6.4c-0.1,2.5-1,4.9-2.5,7.1c-1.6,2.2-3.5,3.8-5.8,4.6
			c-2.3,0.9-4.5,0.5-6.6-1.2c1.7,1.4,2.4,3.8,2.1,7.3c-0.3,3.5-1.3,7.1-3,11c-1.7,3.9-3.7,7.2-6.1,10c-2.4,2.8-4.7,4.3-7,4.4
			c2,0.8,3.4,2.4,4.3,4.8c0.9,2.4,1.2,4.9,0.9,7.5c-0.3,2.6-1.2,4.6-2.8,6.2c2.7-0.6,4.9-0.1,6.6,1.5c1.7,1.6,2.5,3.7,2.3,6.1
			c-0.1,2.4-1.6,4.5-4.5,6.4c2.1,1.7,3.1,3.8,3,6.3c0,2.6-1,5-2.8,7.4c-1.8,2.4-4.3,4.2-7.4,5.5c-3.1,1.3-6.7,1.5-10.7,0.8
			C30.9,181.4,26.7,179.1,22.1,175.2z"/>
	</g>
	<g>
		<linearGradient id="SVGID_1_" gradientUnits="userSpaceOnUse" x1="130.7929" y1="37.0197" x2="130.7929" y2="490.4307">
			<stop  offset="0" style="stop-color:#FF7BAC"/>
			<stop  offset="0.3628" style="stop-color:#FE79AA"/>
			<stop  offset="0.5375" style="stop-color:#FB71A4"/>
			<stop  offset="0.6719" style="stop-color:#F6649A"/>
			<stop  offset="0.7859" style="stop-color:#EE528B"/>
			<stop  offset="0.8867" style="stop-color:#E43A78"/>
			<stop  offset="0.9771" style="stop-color:#D81D61"/>
			<stop  offset="1" style="stop-color:#D4145A"/>
		</linearGradient>
		<path class="st5" d="M211.9,472.5c-6,15.7-24.5,22.6-39.2,14.5c-13.2-7.3-27.7-28.6-34.9-43.4c-3.2-6.6-23.5-50.7-25.8-59.7
			c-5.6-21.9-14.6-27-22-52.1c-3.1-10.7-5.3-42.2-3.1-63.4c6-57.7-50.4-56.9-48.4-116.8c1.3-38.1,25.8-67.9,32.2-75.6
			c6-7.3,15.9-19.1,33.1-27.4c8-3.8,16.6-6.5,25.8-7.9l23.3-3.4c9.3-1.4,17.9,5,19.3,14.3c4.2,28.3-7.5,146.6,31.4,209.9
			c5.7,9.2,16.3,23.2,18.2,42.7c2.6,27-5.3,29-2.7,64.9c1.7,23.2,6.1,36.3,2.7,61.3C220,444.2,218.8,452.4,211.9,472.5L211.9,472.5z
			"/>
	</g>
	<g>
		<path class="st0" d="M103,406.8c1.3-2.6,3.4-4.1,6.5-4.6c3.1-0.5,6.6-0.1,10.3,1.1c3.8,1.2,7.3,2.9,10.5,5.1
			c3.2,2.2,5.6,4.7,7.1,7.4c1.5,2.7,1.7,5.4,0.4,8c1.2-2.5,3.3-3.9,6.2-4.3c3-0.4,6.2,0,9.7,1.1c3.5,1.1,6.8,2.7,9.9,4.8
			c3.1,2.1,5.4,4.4,6.9,6.9c1.5,2.6,1.7,5.1,0.5,7.5c1.9-3.9,4.1-6.4,6.5-7.5c2.5-1.1,4.7-1.2,6.7-0.2c1.9,0.9,3.3,2.7,3.9,5.4
			c0.7,2.6,0.1,5.9-1.8,9.8c1.2-2.5,3.3-3.8,6.2-4.2c2.9-0.3,6.2,0.1,9.7,1.2c3.5,1.1,6.8,2.7,9.9,4.8c3.1,2.1,5.4,4.3,6.9,6.8
			c1.5,2.5,1.6,4.9,0.4,7.4c2.4-5,5.1-7.9,7.9-8.7c2.8-0.8,4.7,0.1,5.9,2.8c1.1,2.7,0.4,6.5-2,11.6c3.1-0.7,5.9-0.3,8.3,1.3
			c2.4,1.6,4.1,3.6,5.2,6.2c1.1,2.6,1.2,5.1,0.6,7.4c-0.7,2.4-2.5,4-5.5,4.7c4.1,2,6.7,4.2,7.9,6.8c1.2,2.6,1.3,5,0.3,7.2
			c-1.1,2.2-3,3.6-5.8,4.2c-2.8,0.6-6.2,0-10.3-2c0.9,3.5,0.6,6.2-1,8.1c-1.6,1.9-3.7,3.1-6.4,3.4c-2.7,0.3-5.2-0.3-7.7-1.9
			c-2.5-1.6-4.2-4.1-5.1-7.6c-1.5,3.1-3.7,4.9-6.7,5.5c-3,0.6-5.9,0.1-8.7-1.2c-2.9-1.4-4.9-3.4-6.3-6c-1.3-2.6-1.2-5.5,0.3-8.6
			c-2.4,4.9-4.7,7.8-7,8.7c-2.3,0.9-3.8,0.2-4.5-2.2c-0.7-2.3,0.1-6,2.5-10.9c-1.4,3-3.4,4.7-5.8,5.3c-2.4,0.6-4.7,0.3-7-0.8
			c-2.3-1.1-3.9-2.8-4.9-5c-1-2.3-0.8-4.9,0.6-7.8c-1.8,3.7-4.5,5.9-8,6.5c-3.5,0.6-7,0.1-10.5-1.6c-3.5-1.7-6-4.1-7.8-7.2
			c-1.7-3.1-1.7-6.6,0.1-10.3c-2.2,4.5-4.6,7-7.3,7.6c-2.7,0.5-4.6-0.4-5.9-2.8c-1.2-2.4-0.7-5.9,1.4-10.4c-1.2,2.4-3.2,3.9-6.1,4.3
			c-2.9,0.4-6.1,0.1-9.6-1.1c-3.5-1.2-6.8-2.8-9.9-4.8c-3.1-2.1-5.4-4.4-6.9-6.9c-1.5-2.6-1.7-5.1-0.5-7.5c-3.1,0.3-5.6-0.4-7.5-2.1
			c-1.9-1.6-3.1-3.6-3.6-6c-0.5-2.3-0.3-4.4,0.8-6.3c1.1-1.9,3.2-2.9,6.3-3.2c-3-1.5-4.9-3.5-5.8-6.1c-0.9-2.6-1-5.3-0.3-8.3
			c0.7-2.9,2-5.5,3.9-7.8c1.9-2.3,4.3-3.7,7-4.5C96.9,404.7,99.9,405.2,103,406.8z"/>
	</g>
	<g>
		<path class="st4" d="M87.5,124.3c5,26,70.2,48,105.4,30.3c10.7-5.4,16.6-13.6,38.4-24.2c0,0,18.7-9.2,40.7-14.6
			c59.6-14.6,132.4,18.1,138,8.1c6.3-11.2-64.5-91.1-160.1-92.4C164.9,30.4,81.1,91.7,87.5,124.3z"/>
	</g>
	<g>
		<path class="st4" d="M112,155.4c9.1-14.7,54-13,71.3,5.9c5.3,5.8,7,12.2,17.8,23.6c0,0,9.3,10,21.5,18.4
			c32.9,22.7,84.9,19.6,86,27c1.2,8.3-60.5,40.6-119.1,19.2C137.5,230.6,100.6,173.8,112,155.4z"/>
	</g>
	
		<ellipse transform="matrix(0.9801 -0.1987 0.1987 0.9801 -17.9251 22.63)" class="st6" cx="103.8" cy="100.6" rx="16.6" ry="24.3"/>
	<ellipse transform="matrix(0.9801 -0.1987 0.1987 0.9801 -18.6977 23.1766)" class="st7" cx="106.1" cy="104.7" rx="8" ry="11.8"/>
	<path class="st0" d="M121.8,95C118,80.8,106.9,71.4,97,74.1s-14.9,16.3-11.1,30.5"/>
</g>
</svg>
