<?xml version="1.0" encoding="utf-8"?>
<!-- Generator: Adobe Illustrator 28.3.0, SVG Export Plug-In . SVG Version: 6.00 Build 0)  -->
<svg version="1.1" xmlns="http://www.w3.org/2000/svg" xmlns:xlink="http://www.w3.org/1999/xlink" x="0px" y="0px"
	 viewBox="0 0 1624.1 2044.5" style="enable-background:new 0 0 1624.1 2044.5;" xml:space="preserve">
<style type="text/css">
	.st0{fill:#D4145A;}
	.st1{fill:url(#SVGID_1_);}
	.st2{fill:#FBB03B;}
	.st3{fill:#FFFFFF;}
	.st4{fill:#333333;}
	.st5{display:none;}
	.st6{display:inline;}
	.st7{font-family:'RubikBubbles-Regular';}
	.st8{font-size:260.5204px;}
	.st9{fill:#FF7BAC;}
	.st10{fill:url(#SVGID_00000098218007330516615210000007281686915423258802_);}
</style>
<g id="Layer_1">
	<g>
		<g>
			<path class="st0" d="M87.7,693.5c-8.3,4.4-17.2,2.2-26.8-6.6c-9.6-8.8-18.1-20.4-25.6-34.8c-7.5-14.3-11.8-28.1-12.8-41.2
				c-1-13.1,2.6-21.9,10.9-26.3c-13.4,1.9-22.9-0.9-28.3-8.4c-5.5-7.5-6.5-15.7-3-24.4c3.4-8.7,11.9-13.6,25.4-14.7
				C15.2,534.5,7.4,526.5,4,513c-3.5-13.5-3.8-28.4-1-44.8c2.8-16.4,8.4-30.3,16.8-41.8c8.4-11.5,18.7-15.9,30.9-13.3
				c-8.4-4.3-12.4-12.5-11.9-24.4c0.4-11.9,3.8-24.3,10.1-37.1c6.3-12.8,14-22.9,23-30.3c9.1-7.4,18-9.1,26.8-5.3
				c-7.2-4.9-10.1-12.9-8.9-23.8c1.2-10.9,5.2-22.6,12-35c6.8-12.4,15.1-23.6,25-33.5c9.9-9.9,19.8-17,29.6-21.4
				c9.8-4.4,18.6-3.9,26.2,1.4c-8.9-8.7-12.3-18.6-10.2-29.6c2.1-11,7.4-20.8,15.9-29.5c8.5-8.6,18.3-14.2,29.5-16.8
				c11.1-2.6,20.9,0.3,29.3,8.6c-10.7-13.3-14.5-24.9-11.4-34.7c3.1-9.8,9.9-15.3,20.3-16.4c10.4-1.2,21,4.9,31.7,18.3
				c-4.6-10-4.1-20.1,1.6-30.2c5.7-10.1,14.5-19.3,26.3-27.7c11.8-8.4,24.7-14.7,38.5-19.1c13.8-4.4,26.5-5.9,38.1-4.6
				c11.6,1.4,19.9,6.8,24.9,16.4c-1.3-11.3,1.2-20.3,7.3-26.9c6.1-6.6,13.5-10.4,22.2-11.4c8.7-1,16.7,1.1,24.1,6.2
				c7.4,5.1,11.7,13.3,13,24.6c1.2-12.5,5.3-20.5,12.2-24.1c6.9-3.6,13.1-3,18.7,1.9c5.6,4.9,7.6,13.8,5.9,26.7
				c4.4-11.5,11.6-18.7,21.4-21.5c9.8-2.8,19.9-2.5,30.1,0.9c10.3,3.5,18.2,9.6,23.8,18.5c5.6,8.8,6.4,18.8,2.3,29.8
				c8-3.1,15.3-2.2,21.7,2.5c6.5,4.8,11.6,11.5,15.4,20.1c3.8,8.6,5.1,16.9,3.8,25c-1.3,8.1-6.2,13.9-14.6,17.5
				c4.9,8.7,4.1,17.6-2.3,26.7c-6.5,9.1-15.3,16.7-26.5,22.7c-11.2,6.1-22.5,9.3-33.9,9.7c-11.4,0.4-19.4-4-23.9-13.2
				c-0.4,12.4-5.3,20.9-14.6,25.7c-9.4,4.8-19.8,6.2-31.2,4.1c-11.4-2-19.4-7.6-24-16.8c-0.3,9.3-4.4,18.1-12.3,26.4
				c-7.9,8.4-17.2,15.3-28,20.9c-10.8,5.6-21.5,8.8-32,9.5c-10.5,0.7-19.2-2.1-26-8.3c5.3,8.2,6.8,16.5,4.4,24.9
				c-2.4,8.4-7,15.6-13.8,21.7c-6.8,6-14.7,9.4-23.6,10.2c-8.9,0.8-17.1-2.6-24.6-10.2c13.1,11.3,19.5,21.7,19,31.2
				c-0.5,9.5-5.3,15.2-14.3,17.1c-9,1.9-20.1-2.8-33.3-14.1c8.7,7,12.8,15.4,12.4,25.4c-0.4,10-3.8,19.3-10.1,28.2
				c-6.3,8.8-14,15-23,18.4c-9.1,3.4-17.7,1.9-25.9-4.7c6.8,5.4,9.6,15,8.5,28.8c-1.1,13.8-5,28.3-11.7,43.5
				c-6.7,15.3-14.7,28.5-24,39.6c-9.3,11.2-18.6,17-27.8,17.6c7.8,3.1,13.5,9.4,16.9,18.9c3.5,9.5,4.7,19.4,3.6,29.6
				c-1.1,10.2-4.8,18.4-11.2,24.3c10.7-2.5,19.4-0.5,26.1,6c6.7,6.5,9.8,14.5,9.3,24.1c-0.5,9.5-6.5,18-18,25.4
				c8.2,6.6,12.2,14.9,12,25.1c-0.2,10.1-3.8,19.9-10.9,29.3c-7.1,9.4-16.9,16.6-29.3,21.7c-12.4,5.1-26.5,6.1-42.2,3
				C122.5,717.8,105.6,708.7,87.7,693.5z"/>
		</g>
		<g>
			<linearGradient id="SVGID_1_" gradientUnits="userSpaceOnUse" x1="517.6717" y1="146.523" x2="517.6717" y2="1941.098">
				<stop  offset="0" style="stop-color:#FF7BAC"/>
				<stop  offset="0.3628" style="stop-color:#FE79AA"/>
				<stop  offset="0.5375" style="stop-color:#FB71A4"/>
				<stop  offset="0.6719" style="stop-color:#F6649A"/>
				<stop  offset="0.7859" style="stop-color:#EE528B"/>
				<stop  offset="0.8867" style="stop-color:#E43A78"/>
				<stop  offset="0.9771" style="stop-color:#D81D61"/>
				<stop  offset="1" style="stop-color:#D4145A"/>
			</linearGradient>
			<path class="st1" d="M838.5,1870.1c-23.7,62.1-96.8,89.5-155.1,57.5c-52.3-28.8-109.6-113.3-138.2-171.9
				c-12.7-26-92.9-200.8-101.9-236.2c-22-86.5-57.7-106.7-87-206.3c-12.4-42.3-21.1-167.2-12.4-251.1
				c23.6-228.5-199.6-225.2-191.4-462.4c5.2-150.6,102.2-268.6,127.3-299.1c23.9-29,62.9-75.6,131.1-108.4
				c31.5-15.2,65.8-25.9,102.2-31.3l92.3-13.6c36.8-5.4,71,20,76.5,56.8c16.6,112-29.7,580.1,124.5,830.8
				c22.5,36.6,64.6,92,72.1,169.1c10.3,106.9-21,114.7-10.7,257c6.6,91.7,24.2,143.7,10.7,242.7
				C870.8,1758.2,865.8,1790.6,838.5,1870.1L838.5,1870.1z"/>
		</g>
		<g>
			<path class="st0" d="M407.5,1610.2c5-10.2,13.6-16.3,25.9-18.2c12.3-1.9,25.9-0.5,40.9,4.2c14.9,4.7,28.7,11.4,41.4,20.1
				c12.7,8.7,22.1,18.4,28.2,29.3c6.1,10.8,6.7,21.4,1.7,31.6c4.7-9.7,12.9-15.3,24.7-16.9c11.8-1.6,24.6-0.1,38.5,4.5
				c13.9,4.5,27,10.9,39.2,19c12.2,8.1,21.3,17.3,27.4,27.5c6.1,10.2,6.7,20.1,2,29.9c7.4-15.3,16.1-25.2,25.9-29.6
				c9.8-4.4,18.6-4.7,26.3-1c7.7,3.7,12.9,10.8,15.5,21.3c2.6,10.4,0.2,23.3-7.2,38.6c4.7-9.7,12.9-15.2,24.5-16.5
				c11.6-1.3,24.4,0.3,38.4,4.9c13.9,4.5,27,10.9,39.2,19c12.2,8.1,21.2,17.1,27.1,26.9c5.9,9.8,6.5,19.5,1.8,29.3
				c9.7-19.9,20-31.5,31.1-34.6c11.1-3.2,18.8,0.6,23.2,11.2c4.4,10.6,1.7,25.9-7.9,45.8c12.4-2.8,23.3-1.2,32.8,5
				c9.5,6.2,16.3,14.4,20.5,24.6c4.2,10.2,4.9,20.1,2.2,29.5c-2.7,9.4-10,15.7-21.8,18.8c16,7.8,26.5,16.8,31.4,27.1
				c4.9,10.3,5.3,19.7,1.1,28.4c-4.2,8.7-11.9,14.3-23,16.8c-11.1,2.5-24.7-0.1-40.7-7.9c3.6,13.7,2.3,24.4-4,32.1
				c-6.3,7.7-14.7,12.1-25.2,13.3c-10.5,1.2-20.6-1.3-30.4-7.6c-9.8-6.3-16.5-16.4-20.1-30.1c-5.9,12.3-14.8,19.5-26.5,21.7
				c-11.7,2.2-23.2,0.6-34.5-4.9c-11.3-5.5-19.5-13.4-24.8-23.8c-5.2-10.4-4.9-21.8,1.1-34c-9.4,19.4-18.6,30.9-27.7,34.4
				c-9,3.5-15,0.6-17.8-8.6c-2.8-9.3,0.4-23.6,9.9-43c-5.7,11.7-13.3,18.8-22.9,21.1c-9.6,2.3-18.8,1.3-27.7-3
				c-8.9-4.3-15.4-11-19.5-19.9c-4.1-8.9-3.3-19.3,2.4-31c-7.2,14.8-17.8,23.4-31.8,25.8c-14,2.4-27.8,0.2-41.5-6.4
				c-13.7-6.6-23.9-16.2-30.7-28.6c-6.8-12.5-6.6-26.1,0.6-40.9c-8.7,17.9-18.3,27.9-28.9,30c-10.6,2.1-18.3-1.6-23.2-11.2
				c-4.9-9.6-3-23.4,5.7-41.2c-4.7,9.7-12.8,15.4-24.3,17.1c-11.5,1.7-24.2,0.3-38.1-4.3c-13.9-4.6-27-10.9-39.2-19
				c-12.2-8.1-21.3-17.3-27.4-27.5c-6.1-10.2-6.7-20.2-2-29.9c-12.2,1-22.1-1.7-29.6-8.2c-7.5-6.5-12.3-14.3-14.4-23.6
				c-2.1-9.2-1-17.5,3.3-24.9c4.3-7.4,12.6-11.6,24.8-12.6c-11.9-5.8-19.6-13.8-23-24c-3.5-10.2-3.9-21.1-1.2-32.8
				c2.7-11.6,7.9-21.9,15.5-30.8c7.6-8.9,16.9-14.8,27.9-17.7C383.7,1601.8,395.3,1603.7,407.5,1610.2z"/>
		</g>
		<g>
			<path class="st2" d="M346.1,491.8c20,102.8,277.9,189.9,417,120.1c42.5-21.3,65.7-53.9,152.1-95.6c0,0,74-36.4,161.3-57.8
				c235.8-57.8,523.9,71.8,546.1,32.2c24.9-44.3-255.3-360.7-633.6-365.8C652.7,120.4,321.1,362.9,346.1,491.8z"/>
		</g>
		<g>
			<path class="st2" d="M443.4,615.2c36-58.1,213.6-51.3,282.2,23.5c21,22.9,27.6,48.1,70.6,93.6c0,0,36.7,39.4,85,72.7
				c130.4,89.9,336.2,77.8,340.5,107c4.9,32.8-239.4,160.8-471.3,76.1C544.2,912.8,398.2,687.9,443.4,615.2z"/>
		</g>
		
			<ellipse transform="matrix(0.9801 -0.1987 0.1987 0.9801 -70.9468 89.5684)" class="st3" cx="410.8" cy="398.3" rx="65.7" ry="96.3"/>
		
			<ellipse transform="matrix(0.9801 -0.1987 0.1987 0.9801 -74.0046 91.7317)" class="st4" cx="420" cy="414.6" rx="31.8" ry="46.6"/>
		<path class="st0" d="M482.1,376c-15.1-56.2-59.1-93.2-98.3-82.7c-39.2,10.5-58.8,64.6-43.7,120.8"/>
	</g>
</g>
<g id="Layer_2" class="st5">
	<g class="st6">
		<g>
			<text transform="matrix(1 0 0 1 300.626 1135.5845)" class="st0 st7 st8">L</text>
			<text transform="matrix(1 0 0 1 452.5161 1115.3706)" class="st0 st7 st8">U</text>
			<text transform="matrix(1 0 0 1 645.3242 1146.1733)" class="st0 st7 st8">O</text>
			<text transform="matrix(1 0 0 1 838.6992 1093.0356)" class="st0 st7 st8">L</text>
			<text transform="matrix(1 0 0 1 1003.5874 1138.8442)" class="st0 st7 st8">I</text>
			<text transform="matrix(1 0 0 1 1100.9673 1178.8882)" class="st0 st7 st8">N</text>
			<text transform="matrix(1 0 0 1 1296.8496 1178.6763)" class="st0 st7 st8">G</text>
			<text transform="matrix(1 0 0 1 1485.4795 1092.9238)" class="st0 st7 st8">O</text>
		</g>
		<g>
			<text transform="matrix(1 0 0 1 285.626 1117.5845)" class="st9 st7 st8">L</text>
			<text transform="matrix(1 0 0 1 437.5161 1097.3706)" class="st2 st7 st8">U</text>
			<text transform="matrix(1 0 0 1 630.3242 1128.1733)" class="st9 st7 st8">O</text>
			<text transform="matrix(1 0 0 1 823.6992 1075.0356)" class="st2 st7 st8">L</text>
			<text transform="matrix(1 0 0 1 988.5874 1120.8442)" class="st9 st7 st8">I</text>
			<text transform="matrix(1 0 0 1 1085.9673 1160.8882)" class="st2 st7 st8">N</text>
			<text transform="matrix(1 0 0 1 1281.8496 1160.6763)" class="st9 st7 st8">G</text>
			<text transform="matrix(1 0 0 1 1470.4795 1074.9238)" class="st2 st7 st8">O</text>
		</g>
		<g>
			<path class="st0" d="M-32.5,939.2c-2.1,1.1-4.4,0.6-6.8-1.7c-2.4-2.2-4.6-5.2-6.5-8.8c-1.9-3.6-3-7.1-3.2-10.4
				c-0.3-3.3,0.7-5.5,2.8-6.6c-3.4,0.5-5.8-0.2-7.2-2.1c-1.4-1.9-1.6-4-0.8-6.2c0.9-2.2,3-3.4,6.4-3.7c-3.1-0.7-5.1-2.7-5.9-6.1
				c-0.9-3.4-1-7.2-0.3-11.3c0.7-4.1,2.1-7.7,4.2-10.6c2.1-2.9,4.7-4,7.8-3.4c-2.1-1.1-3.1-3.2-3-6.2c0.1-3,1-6.1,2.5-9.4
				c1.6-3.2,3.5-5.8,5.8-7.7c2.3-1.9,4.6-2.3,6.8-1.3c-1.8-1.2-2.6-3.2-2.2-6c0.3-2.8,1.3-5.7,3-8.8c1.7-3.1,3.8-6,6.3-8.5
				c2.5-2.5,5-4.3,7.5-5.4c2.5-1.1,4.7-1,6.6,0.3c-2.2-2.2-3.1-4.7-2.6-7.5c0.5-2.8,1.9-5.3,4-7.4c2.1-2.2,4.6-3.6,7.5-4.2
				c2.8-0.6,5.3,0.1,7.4,2.2c-2.7-3.4-3.7-6.3-2.9-8.8c0.8-2.5,2.5-3.9,5.1-4.2c2.6-0.3,5.3,1.2,8,4.6c-1.2-2.5-1-5.1,0.4-7.6
				c1.4-2.5,3.7-4.9,6.6-7c3-2.1,6.2-3.7,9.7-4.8c3.5-1.1,6.7-1.5,9.6-1.2c2.9,0.3,5,1.7,6.3,4.1c-0.3-2.9,0.3-5.1,1.8-6.8
				c1.5-1.7,3.4-2.6,5.6-2.9c2.2-0.2,4.2,0.3,6.1,1.6c1.9,1.3,3,3.4,3.3,6.2c0.3-3.1,1.3-5.2,3.1-6.1c1.7-0.9,3.3-0.8,4.7,0.5
				c1.4,1.2,1.9,3.5,1.5,6.8c1.1-2.9,2.9-4.7,5.4-5.4c2.5-0.7,5-0.6,7.6,0.2c2.6,0.9,4.6,2.4,6,4.7c1.4,2.2,1.6,4.7,0.6,7.5
				c2-0.8,3.9-0.6,5.5,0.6c1.6,1.2,2.9,2.9,3.9,5.1c1,2.2,1.3,4.3,1,6.3c-0.3,2-1.6,3.5-3.7,4.4c1.2,2.2,1,4.4-0.6,6.7
				c-1.6,2.3-3.9,4.2-6.7,5.7c-2.8,1.5-5.7,2.4-8.6,2.5c-2.9,0.1-4.9-1-6-3.3c-0.1,3.1-1.3,5.3-3.7,6.5c-2.4,1.2-5,1.6-7.9,1
				c-2.9-0.5-4.9-1.9-6.1-4.2c-0.1,2.3-1.1,4.6-3.1,6.7c-2,2.1-4.4,3.9-7.1,5.3c-2.7,1.4-5.4,2.2-8.1,2.4c-2.7,0.2-4.8-0.5-6.6-2.1
				c1.3,2.1,1.7,4.2,1.1,6.3c-0.6,2.1-1.8,3.9-3.5,5.5c-1.7,1.5-3.7,2.4-6,2.6c-2.3,0.2-4.3-0.7-6.2-2.6c3.3,2.9,4.9,5.5,4.8,7.9
				c-0.1,2.4-1.3,3.8-3.6,4.3c-2.3,0.5-5.1-0.7-8.4-3.6c2.2,1.8,3.2,3.9,3.1,6.4c-0.1,2.5-1,4.9-2.5,7.1c-1.6,2.2-3.5,3.8-5.8,4.6
				c-2.3,0.9-4.5,0.5-6.6-1.2c1.7,1.4,2.4,3.8,2.1,7.3c-0.3,3.5-1.3,7.1-3,11c-1.7,3.9-3.7,7.2-6.1,10c-2.4,2.8-4.7,4.3-7,4.4
				c2,0.8,3.4,2.4,4.3,4.8c0.9,2.4,1.2,4.9,0.9,7.5c-0.3,2.6-1.2,4.6-2.8,6.2c2.7-0.6,4.9-0.1,6.6,1.5c1.7,1.6,2.5,3.7,2.3,6.1
				c-0.1,2.4-1.6,4.5-4.5,6.4c2.1,1.7,3.1,3.8,3,6.3c0,2.6-1,5-2.8,7.4c-1.8,2.4-4.3,4.2-7.4,5.5c-3.1,1.3-6.7,1.5-10.7,0.8
				C-23.7,945.3-28,943-32.5,939.2z"/>
		</g>
		<g>
			
				<linearGradient id="SVGID_00000116950487240819470920000008972336363014612371_" gradientUnits="userSpaceOnUse" x1="76.1091" y1="801.0079" x2="76.1091" y2="1254.4188">
				<stop  offset="0" style="stop-color:#FF7BAC"/>
				<stop  offset="0.3628" style="stop-color:#FE79AA"/>
				<stop  offset="0.5375" style="stop-color:#FB71A4"/>
				<stop  offset="0.6719" style="stop-color:#F6649A"/>
				<stop  offset="0.7859" style="stop-color:#EE528B"/>
				<stop  offset="0.8867" style="stop-color:#E43A78"/>
				<stop  offset="0.9771" style="stop-color:#D81D61"/>
				<stop  offset="1" style="stop-color:#D4145A"/>
			</linearGradient>
			<path style="fill:url(#SVGID_00000116950487240819470920000008972336363014612371_);" d="M157.2,1236.5
				c-6,15.7-24.5,22.6-39.2,14.5c-13.2-7.3-27.7-28.6-34.9-43.4c-3.2-6.6-23.5-50.7-25.8-59.7c-5.6-21.9-14.6-27-22-52.1
				c-3.1-10.7-5.3-42.2-3.1-63.4c6-57.7-50.4-56.9-48.4-116.8c1.3-38.1,25.8-67.9,32.2-75.6c6-7.3,15.9-19.1,33.1-27.4
				c8-3.8,16.6-6.5,25.8-7.9l23.3-3.4c9.3-1.4,17.9,5,19.3,14.3c4.2,28.3-7.5,146.6,31.4,209.9c5.7,9.2,16.3,23.2,18.2,42.7
				c2.6,27-5.3,29-2.7,64.9c1.7,23.2,6.1,36.3,2.7,61.3C165.3,1208.2,164.1,1216.4,157.2,1236.5L157.2,1236.5z"/>
		</g>
		<g>
			<path class="st0" d="M48.3,1170.8c1.3-2.6,3.4-4.1,6.5-4.6c3.1-0.5,6.6-0.1,10.3,1.1c3.8,1.2,7.3,2.9,10.5,5.1
				c3.2,2.2,5.6,4.7,7.1,7.4c1.5,2.7,1.7,5.4,0.4,8c1.2-2.5,3.3-3.9,6.2-4.3c3-0.4,6.2,0,9.7,1.1c3.5,1.1,6.8,2.7,9.9,4.8
				c3.1,2.1,5.4,4.4,6.9,6.9c1.5,2.6,1.7,5.1,0.5,7.5c1.9-3.9,4.1-6.4,6.5-7.5c2.5-1.1,4.7-1.2,6.7-0.2c1.9,0.9,3.3,2.7,3.9,5.4
				c0.7,2.6,0.1,5.9-1.8,9.8c1.2-2.5,3.3-3.8,6.2-4.2c2.9-0.3,6.2,0.1,9.7,1.2c3.5,1.1,6.8,2.7,9.9,4.8c3.1,2.1,5.4,4.3,6.9,6.8
				c1.5,2.5,1.6,4.9,0.4,7.4c2.4-5,5.1-7.9,7.9-8.7c2.8-0.8,4.7,0.1,5.9,2.8c1.1,2.7,0.4,6.5-2,11.6c3.1-0.7,5.9-0.3,8.3,1.3
				c2.4,1.6,4.1,3.6,5.2,6.2c1.1,2.6,1.2,5.1,0.6,7.4c-0.7,2.4-2.5,4-5.5,4.7c4.1,2,6.7,4.2,7.9,6.8c1.2,2.6,1.3,5,0.3,7.2
				c-1.1,2.2-3,3.6-5.8,4.2c-2.8,0.6-6.2,0-10.3-2c0.9,3.5,0.6,6.2-1,8.1c-1.6,1.9-3.7,3.1-6.4,3.4c-2.7,0.3-5.2-0.3-7.7-1.9
				c-2.5-1.6-4.2-4.1-5.1-7.6c-1.5,3.1-3.7,4.9-6.7,5.5c-3,0.6-5.9,0.1-8.7-1.2c-2.9-1.4-4.9-3.4-6.3-6c-1.3-2.6-1.2-5.5,0.3-8.6
				c-2.4,4.9-4.7,7.8-7,8.7c-2.3,0.9-3.8,0.2-4.5-2.2c-0.7-2.3,0.1-6,2.5-10.9c-1.4,3-3.4,4.7-5.8,5.3c-2.4,0.6-4.7,0.3-7-0.8
				c-2.3-1.1-3.9-2.8-4.9-5c-1-2.3-0.8-4.9,0.6-7.8c-1.8,3.7-4.5,5.9-8,6.5c-3.5,0.6-7,0.1-10.5-1.6c-3.5-1.7-6-4.1-7.8-7.2
				c-1.7-3.1-1.7-6.6,0.1-10.3c-2.2,4.5-4.6,7-7.3,7.6c-2.7,0.5-4.6-0.4-5.9-2.8c-1.2-2.4-0.7-5.9,1.4-10.4
				c-1.2,2.4-3.2,3.9-6.1,4.3c-2.9,0.4-6.1,0.1-9.6-1.1c-3.5-1.2-6.8-2.8-9.9-4.8c-3.1-2.1-5.4-4.4-6.9-6.9
				c-1.5-2.6-1.7-5.1-0.5-7.5c-3.1,0.3-5.6-0.4-7.5-2.1c-1.9-1.6-3.1-3.6-3.6-6c-0.5-2.3-0.3-4.4,0.8-6.3c1.1-1.9,3.2-2.9,6.3-3.2
				c-3-1.5-4.9-3.5-5.8-6.1c-0.9-2.6-1-5.3-0.3-8.3c0.7-2.9,2-5.5,3.9-7.8c1.9-2.3,4.3-3.7,7-4.5
				C42.3,1168.7,45.2,1169.2,48.3,1170.8z"/>
		</g>
		<g>
			<path class="st2" d="M32.8,888.2c5,26,70.2,48,105.4,30.3c10.7-5.4,16.6-13.6,38.4-24.2c0,0,18.7-9.2,40.7-14.6
				c59.6-14.6,132.4,18.1,138,8.1c6.3-11.2-64.5-91.1-160.1-92.4C110.2,794.4,26.5,855.7,32.8,888.2z"/>
		</g>
		<g>
			<path class="st2" d="M57.3,919.4c9.1-14.7,54-13,71.3,5.9c5.3,5.8,7,12.2,17.8,23.6c0,0,9.3,10,21.5,18.4
				c32.9,22.7,84.9,19.6,86,27c1.2,8.3-60.5,40.6-119.1,19.2C82.8,994.6,45.9,937.8,57.3,919.4z"/>
		</g>
		
			<ellipse transform="matrix(0.9801 -0.1987 0.1987 0.9801 -170.8273 26.9989)" class="st3" cx="49.1" cy="864.6" rx="16.6" ry="24.3"/>
		
			<ellipse transform="matrix(0.9801 -0.1987 0.1987 0.9801 -171.5999 27.5455)" class="st4" cx="51.4" cy="868.7" rx="8" ry="11.8"/>
		<path class="st0" d="M67.1,859c-3.8-14.2-14.9-23.5-24.8-20.9c-9.9,2.7-14.9,16.3-11.1,30.5"/>
	</g>
</g>
</svg>
